<?xml version="1.0" encoding="UTF-8"?>
<svg width="1052px" height="169px" viewBox="0 0 1052 169" version="1.1" xmlns="http://www.w3.org/2000/svg" xmlns:xlink="http://www.w3.org/1999/xlink">
    <!-- Generator: Sketch 56 (81588) - https://sketch.com -->
    <title>aeternity-logo-vector-black-bg-horizontal03</title>
    <desc>Created with Sketch.</desc>
    <g id="aeternity-logo-vector-black-bg-horizontal03" stroke="none" stroke-width="1" fill="none" fill-rule="evenodd">
        <g id="Group-2">
            <path d="M267.99326,-5.68434189e-14 C233.36462,-5.68434189e-14 209.62904,21.63672 189.11602,48.44389 L201.27126,66.20089 C220.06469,40.494 240.03555,20.268 267.99326,20.268 C300.10675,20.268 326.81069,43.54623 331.74191,73.91334 L252.02209,73.91334 L252.02209,94.18209 L352.37909,94.18209 C352.790515,90.819627 352.99843,87.4352799 352.99843,84.04774 C352.99843,37.70362 314.86522,-5.68434189e-14 267.99323,-5.68434189e-14" id="Path" fill="#EE306F"></path>
            <path d="M267.99326,147.82612 C233.80353,147.82612 211.24367,118.29741 182.60538,74.9728 C153.96709,31.64819 126.93501,0.00045 85.00605,0.00045 C38.13405,0.00045 -2.84217094e-14,37.70313 -2.84217094e-14,84.04725 C-2.84217094e-14,130.39054 38.13406,168.094188 85.00605,168.094188 C119.57426,168.094188 143.28718,146.53289 163.77583,119.79122 L151.70871,101.91922 C132.92117,127.61438 112.95453,147.82609 85.00605,147.82609 C49.39971,147.82609 20.43328,119.21548 20.43328,84.04722 C20.43328,48.87979 49.39971,20.26838 85.00605,20.26838 C119.19579,20.26838 140.53961,48.29238 170.33179,93.05117 C200.12403,137.80917 226.06424,168.094188 267.99326,168.094188 C302.911358,168.158973 334.327852,146.892933 347.24143,114.45041 L324.74534,114.45041 C313.318082,135.081051 291.577237,147.866759 267.99326,147.82609" id="Path" fill="#EE306F"></path>
            <path d="M518.83498,132.18375 C504.18326,132.18375 492.804073,127.522147 484.69742,118.19894 C480.664785,122.844807 475.52625,126.399353 469.7566,128.53415 C463.07003,131.054869 455.96834,132.293005 448.82325,132.18375 C438.631403,132.18375 430.640433,129.635387 424.85034,124.53866 C419.057867,119.4439 416.162433,112.379233 416.164039,103.34466 C416.164039,94.1952 419.608707,87.1305333 426.49804,82.15066 C433.390893,77.1708 443.583143,74.6808733 457.07479,74.68088 L473.668,74.68088 L473.668,68.513 C473.668,63.24408 472.291953,59.11748 469.53986,56.1332 C466.789313,53.15292 462.866083,51.6623667 457.77017,51.66154 C452.501237,51.66154 448.201703,52.94954 444.87157,55.52554 C441.739995,57.7188977 439.87512,61.3018652 439.87513,65.12516 L418.85529,63.47387 C418.85529,55.0197233 422.518313,48.11419 429.84436,42.75727 C437.16726,37.40075 446.53352,34.7228733 457.94314,34.72364 C470.8559,34.72364 480.527367,38.5742167 486.95754,46.27537 C494.54216,38.45855 504.12557,34.6079733 515.70777,34.72364 C527.98323,34.72364 537.567427,38.47314 544.46036,45.97214 C551.349693,53.47272 554.79553,64.02628 554.79553,77.63282 L554.79553,89.53282 L494.4261,89.53282 C494.948467,97.58304 497.40958,103.895507 501.80944,108.47022 C506.207673,113.044967 512.28797,115.331947 520.05033,115.33116 C527.427017,115.465905 534.718019,113.733316 541.2455,110.29447 L546.54399,107.33898 L552.88606,121.75971 C548.362606,125.243323 543.219101,127.836788 537.72857,129.40244 C531.604746,131.266998 525.236337,132.20449 518.83498,132.18376 M452.90523,116.19943 C456.690957,116.103677 460.416704,115.231608 463.85166,113.63725 C467.470722,112.135293 470.79441,110.002784 473.66802,107.33898 L473.66802,89.18573 L456.64012,89.18573 C450.617853,89.30301 445.869777,90.7363233 442.39589,93.48567 C439.116737,95.8501895 437.176646,99.6490305 437.18389,103.69177 C437.059224,107.177771 438.549144,110.52647 441.22203,112.76777 C443.916863,115.058703 447.811267,116.202587 452.90524,116.19943 M515.7078,51.66152 C510.353219,51.4993154 505.195942,53.6890499 501.5938,57.6542 C497.91464,61.65204 495.612663,67.3276133 494.68787,74.68092 L533.94869,74.68092 L533.94869,72.0737 C533.94869,65.5314467 532.371263,60.4939433 529.21641,56.96119 C526.05957,53.4276833 521.5567,51.6611267 515.7078,51.66152" id="Shape" fill="#FFFFFF"></path>
            <path d="M596.2223,13.61422 L596.2223,36.45948 L612.8123,36.45948 L612.8123,52.09553 L596.2223,52.09553 L596.2223,104.56048 C596.2223,108.153247 596.93152,110.745057 598.34996,112.33591 C599.766887,113.92911 602.29993,114.72511 605.94909,114.72391 C608.435616,114.717244 610.913205,114.425924 613.33346,113.85564 L613.33346,130.18464 C608.812466,131.476744 604.137044,132.149388 599.43516,132.18416 C583.22078,132.18416 575.113313,123.237257 575.11276,105.34345 L575.11276,52.09545 L559.65189,52.09545 L559.65189,36.45948 L575.11276,36.45948 L575.11276,13.61422 L596.2223,13.61422 Z" id="Path" fill="#FFFFFF"></path>
            <path d="M664.46405,132.18375 C651.086357,132.18375 640.242853,127.970697 631.93354,119.54459 C623.62256,111.11887 619.467537,99.8992033 619.46847,85.88559 L619.46847,83.27959 C619.316609,74.5907122 621.175543,65.9843558 624.90007,58.13276 C628.244061,51.0561168 633.530808,45.0758537 640.14392,40.88922 C646.697199,36.7752857 654.296254,34.6348615 662.03331,34.72364 C674.82959,34.72364 684.717403,38.8060033 691.69675,46.97073 C698.67347,55.1358233 702.162387,66.6883467 702.1635,81.6283 L702.1635,90.14048 L640.75119,90.14048 C641.388777,97.90168 643.97993,104.04042 648.52465,108.5567 C653.070394,113.074667 659.274082,115.524406 665.68021,115.33116 C675.35081,115.33116 683.226987,111.42254 689.30874,103.6053 L700.68638,114.46407 C696.916408,120.085692 691.713368,124.598373 685.61516,127.53558 C679.020505,130.703832 671.779437,132.295133 664.46405,132.18376 M661.94674,51.66153 C656.59276,51.4707426 651.438132,53.7040657 647.91574,57.74068 C644.35484,61.7953467 642.08212,67.4420967 641.09758,74.68093 L681.31545,74.68093 L681.31545,73.11612 C680.852117,66.0502667 678.970557,60.7083433 675.67077,57.09035 C672.36855,53.4727233 667.793883,51.6631167 661.94677,51.66153" id="Shape" fill="#FFFFFF"></path>
            <path d="M765.66302,55.74386 C762.820418,55.2752451 759.943913,55.0426615 757.06295,55.04849 C747.393517,55.04849 740.87939,58.7549567 737.52057,66.16789 L737.52057,130.44518 L716.41438,130.44518 L716.41438,36.45938 L736.56574,36.45938 L737.08704,46.97107 C742.181813,38.8059767 749.24644,34.7236067 758.28092,34.72396 C760.825448,34.6437853 763.361494,35.0560699 765.74959,35.93814 L765.66302,55.74386 Z" id="Path" fill="#FFFFFF"></path>
            <path d="M796.5398,36.4596 L797.1488,47.31838 C804.096247,38.9210467 813.216913,34.7230033 824.5108,34.7242497 C844.084133,34.7242497 854.044277,45.9293 854.39123,68.3394 L854.39123,130.44542 L833.28452,130.44542 L833.28452,69.55476 C833.28452,63.5917133 831.9954,59.1761033 829.41716,56.30793 C826.84086,53.4413433 822.62868,52.00842 816.78062,52.00916 C808.266013,52.00916 801.924653,55.8597567 797.75654,63.56095 L797.75654,130.44542 L776.65043,130.44542 L776.65043,36.4596 L796.5398,36.4596 Z" id="Path" fill="#FFFFFF"></path>
            <path d="M869.06669,12.05154 C868.971597,9.05502134 870.0819,6.14548115 872.1491,3.97411 C874.2031,1.83246333 877.141917,0.760843333 880.96555,0.75925 C884.78795,0.75925 887.741407,1.83087 889.82592,3.97411 C891.917414,6.13313139 893.045591,9.04701019 892.95329,12.05154 C893.040059,15.0165498 891.910088,17.8879893 889.82592,19.99869 C887.739873,22.11431 884.786417,23.1713333 880.96555,23.1697618 C877.145463,23.1697618 874.206647,22.1127367 872.1491,19.99869 C870.089035,17.8755865 868.976982,15.008462 869.06669,12.05154 L869.06669,12.05154 Z M870.36831,130.44625 L891.4751,130.44625 L891.4751,36.46044 L870.36831,36.46044 L870.36831,130.44625 Z" id="Shape" fill="#FFFFFF"></path>
            <path d="M942.20748,13.61422 L942.20748,36.45948 L958.79803,36.45948 L958.79803,52.09553 L942.20748,52.09553 L942.20748,104.56048 C942.20748,108.153247 942.917073,110.745057 944.33626,112.33591 C945.75156,113.92911 948.284417,114.72511 951.93483,114.72391 C954.421364,114.717145 956.898954,114.425826 959.31924,113.85564 L959.31924,130.18464 C954.798239,131.476779 950.1228,132.149423 945.4209,132.18416 C929.20596,132.18416 921.098507,123.237257 921.09854,105.34345 L921.09854,52.09545 L905.63818,52.09545 L905.63818,36.45948 L921.09854,36.45948 L921.09854,13.61422 L942.20748,13.61422 Z" id="Path" fill="#FFFFFF"></path>
            <path d="M1009.46411,100.21769 L1028.57477,36.45926 L1051.07138,36.45926 L1013.72056,144.69166 C1007.98593,160.499493 998.257593,168.404 984.53556,168.404 C981.091646,168.348093 977.671751,167.819179 974.37185,166.8321 L974.37185,150.42252 L978.3674,150.6843 C983.694407,150.6843 987.70456,149.715733 990.39786,147.7786 C993.090073,145.8383 995.218287,142.582757 996.7825,138.01197 L999.82106,129.94044 L966.8143,36.45926 L989.57302,36.45926 L1009.46411,100.21769 Z" id="Path" fill="#FFFFFF"></path>
        </g>
    </g>
</svg>